<?xml version="1.0" standalone="no"?>
<!DOCTYPE svg PUBLIC "-//W3C//DTD SVG 20010904//EN"
 "http://www.w3.org/TR/2001/REC-SVG-20010904/DTD/svg10.dtd">
<svg version="1.0" xmlns="http://www.w3.org/2000/svg"
 width="400.000000pt" height="400.000000pt" viewBox="0 0 400.000000 400.000000"
 preserveAspectRatio="xMidYMid meet">
<metadata>
Created by potrace 1.12, written by Peter Selinger 2001-2015
</metadata>
<g transform="translate(0.000000,400.000000) scale(0.100000,-0.100000)"
fill="#000000" stroke="none">
<path d="M1503 3731 c-44 -21 -63 -45 -63 -83 0 -28 32 -65 67 -79 44 -16 125
-11 162 12 32 19 35 19 75 4 94 -38 193 -140 224 -233 l11 -33 -49 36 c-78 57
-149 78 -251 73 -69 -3 -97 -10 -145 -33 -75 -37 -142 -104 -180 -180 -26 -54
-29 -70 -29 -160 0 -87 3 -107 26 -156 30 -64 85 -129 136 -160 l35 -22 -70
-18 c-179 -45 -276 -180 -237 -331 8 -33 15 -86 15 -119 0 -33 6 -75 14 -93
23 -56 81 -111 148 -141 82 -37 193 -40 278 -7 l54 22 41 -39 c22 -22 66 -55
98 -73 58 -32 59 -35 109 -145 28 -62 54 -113 58 -113 4 0 30 51 58 113 50
110 51 113 109 145 32 18 76 51 98 73 l41 39 54 -22 c85 -33 196 -30 278 7 67
30 125 85 148 141 8 18 14 60 14 93 0 33 7 86 15 119 39 151 -57 286 -237 331
l-70 18 35 22 c51 31 106 96 136 160 23 49 26 69 26 156 0 90 -3 106 -29 160
-38 76 -105 143 -180 180 -48 23 -76 30 -145 33 -102 5 -173 -16 -251 -73
l-49 -36 11 33 c31 93 130 195 224 233 40 15 43 15 75 -4 37 -23 118 -28 162
-12 36 14 67 51 67 81 0 38 -25 66 -75 85 -64 25 -128 14 -172 -30 -18 -18
-52 -40 -75 -50 -98 -38 -190 -116 -239 -203 -13 -23 -26 -42 -29 -42 -3 0
-16 19 -29 42 -50 87 -141 165 -241 204 -25 10 -55 31 -68 46 -41 48 -120 60
-189 29z m323 -434 c95 -48 148 -135 148 -242 -1 -83 -17 -126 -71 -185 -110
-124 -300 -121 -411 5 -102 116 -89 287 30 389 82 70 204 84 304 33z m620 18
c97 -28 178 -129 191 -234 8 -70 -18 -148 -69 -206 -151 -171 -428 -102 -478
120 -24 106 23 222 114 283 80 53 151 64 242 37z m-354 -529 c46 -46 79 -69
116 -82 29 -10 52 -22 52 -25 0 -13 -98 -48 -163 -59 -48 -7 -86 -7 -134 0
-65 11 -163 46 -163 59 0 3 23 14 51 24 46 17 75 41 176 145 0 1 30 -27 65
-62z m-515 -303 c1 -127 23 -235 63 -314 25 -49 23 -52 -57 -70 -86 -20 -189
17 -227 82 -17 28 -20 90 -7 124 5 13 0 34 -16 64 -17 33 -22 54 -17 76 19 92
103 152 214 154 l45 1 2 -117z m190 82 c170 -86 356 -86 526 0 38 19 71 35 73
35 3 0 3 -39 2 -87 l-3 -86 -48 -33 c-167 -115 -407 -115 -574 0 l-48 33 -3
86 c-1 48 -1 87 2 87 2 0 35 -16 73 -35z m887 1 c47 -27 80 -71 90 -121 5 -22
0 -43 -17 -76 -16 -30 -21 -51 -16 -64 13 -34 10 -96 -7 -124 -38 -65 -141
-102 -227 -82 -80 18 -82 21 -57 70 40 79 62 187 63 315 l2 118 62 -5 c42 -3
77 -13 107 -31z m-751 -360 c42 -9 99 -16 127 -16 69 0 191 26 256 55 l54 24
-16 -37 c-65 -156 -169 -242 -294 -242 -125 0 -229 86 -294 242 l-16 37 54
-24 c29 -13 88 -31 129 -39z"/>
<path d="M1664 3140 c-32 -13 -54 -50 -54 -91 0 -29 7 -43 31 -63 41 -35 83
-34 120 3 47 48 38 116 -21 146 -32 17 -45 18 -76 5z"/>
<path d="M2318 3135 c-57 -32 -65 -99 -19 -146 37 -37 79 -38 120 -3 81 68 -9
200 -101 149z"/>
<path d="M650 840 l0 -381 48 3 47 3 0 375 0 375 -47 3 -48 3 0 -381z"/>
<path d="M1270 840 l0 -380 45 0 45 0 0 205 0 205 45 0 45 0 0 44 0 45 -42 3
-43 3 -3 128 -3 127 -44 0 -45 0 0 -380z"/>
<path d="M960 921 c-111 -36 -170 -115 -170 -228 0 -107 63 -188 169 -219 86
-26 166 -6 246 60 l30 24 -29 31 c-36 37 -46 38 -76 6 -12 -13 -38 -29 -57
-36 -36 -11 -103 -5 -103 11 0 4 59 65 132 134 l132 125 -20 22 c-39 43 -102
71 -167 75 -34 2 -73 0 -87 -5z m117 -89 c9 -5 -18 -38 -83 -102 -101 -102
-114 -105 -114 -30 0 44 30 94 72 120 33 20 102 27 125 12z"/>
<path d="M1574 906 c-148 -69 -181 -261 -63 -373 59 -56 98 -66 262 -71 l147
-4 0 148 c0 173 -11 207 -79 265 -73 64 -177 77 -267 35z m184 -86 c57 -35 72
-72 72 -179 l0 -94 -101 5 c-79 4 -106 9 -126 25 -92 68 -94 181 -4 240 44 29
113 31 159 3z"/>
</g>
</svg>
